<?xml version="1.0" encoding="UTF-8"?>
<svg id="Capa_1" data-name="Capa 1" xmlns="http://www.w3.org/2000/svg" viewBox="0 0 64 64">
  <defs>
    <style>
      .cls-1 {
        fill: #23b7f5;
      }
    </style>
  </defs>
  <path class="cls-1" d="M22.99,44.08c-.95-.47-2.18-.19-2.73.64l-8,11.86c-.55.82-.21,1.85.75,2.31.31.15.65.22.99.22.69,0,1.36-.31,1.74-.86l8-11.86c.55-.8.21-1.84-.75-2.31ZM34.99,44.08c-.95-.47-2.18-.19-2.72.64l-8,11.86c-.55.82-.21,1.85.75,2.31.31.15.65.22.99.22.69,0,1.36-.31,1.74-.86l8-11.86c.55-.8.21-1.84-.75-2.31ZM10.99,44.08c-.95-.47-2.18-.19-2.72.64L.26,56.57c-.55.82-.21,1.85.75,2.31.31.15.65.22.99.22.69,0,1.36-.31,1.74-.86l8-11.86c.55-.8.21-1.84-.75-2.31ZM58.99,44.08c-.95-.47-2.17-.19-2.72.64l-8,11.86c-.55.82-.21,1.85.75,2.31.31.15.65.22.99.22.69,0,1.36-.31,1.74-.86l8-11.86c.55-.8.21-1.84-.75-2.31ZM46.99,44.08c-.95-.47-2.18-.19-2.72.64l-8,11.86c-.55.82-.21,1.85.75,2.31.31.15.65.22.99.22.69,0,1.36-.31,1.74-.86l8-11.86c.55-.8.21-1.84-.75-2.31ZM52,18.45c-.08,0-.14.02-.2.02.14-.55.2-1.12.2-1.72,0-4.68-4.47-8.47-10-8.47-3.08,0-5.79,1.2-7.63,3.05-2.32-3.81-6.96-6.44-12.37-6.44-7.72,0-14,5.3-14,11.86,0,.77.1,1.51.26,2.24C3.48,20.33,0,24.11,0,28.61,0,34.22,5.38,38.78,12,38.78h40c6.62,0,12-4.55,12-10.16s-5.37-10.16-12-10.16Z"/>
</svg>