<?xml version="1.0" encoding="UTF-8"?>
<svg id="Capa_1" data-name="Capa 1" xmlns="http://www.w3.org/2000/svg" viewBox="0 0 250 70">
  <defs>
    <style>
      .cls-1 {
        fill: #23b7f5;
      }
    </style>
  </defs>
  <path class="cls-1" d="M177.23,14.95c-.26-.13-.6-.05-.76.18l-2.22,3.28c-.15.23-.06.51.21.64.09.04.18.06.27.06.19,0,.38-.09.48-.24l2.22-3.28c.15-.22.06-.51-.21-.64ZM180.56,14.95c-.26-.13-.6-.05-.75.18l-2.22,3.28c-.15.23-.06.51.21.64.09.04.18.06.27.06.19,0,.38-.09.48-.24l2.22-3.28c.15-.22.06-.51-.21-.64ZM173.91,14.95c-.26-.13-.6-.05-.75.18l-2.22,3.28c-.15.23-.06.51.21.64.09.04.18.06.27.06.19,0,.38-.09.48-.24l2.22-3.28c.15-.22.06-.51-.21-.64ZM187.2,14.95c-.26-.13-.6-.05-.75.18l-2.22,3.28c-.15.23-.06.51.21.64.09.04.18.06.27.06.19,0,.38-.09.48-.24l2.22-3.28c.15-.22.06-.51-.21-.64ZM183.88,14.95c-.26-.13-.6-.05-.75.18l-2.22,3.28c-.15.23-.06.51.21.64.09.04.18.06.27.06.19,0,.38-.09.48-.24l2.22-3.28c.15-.22.06-.51-.21-.64ZM185.27,7.85s-.04,0-.06,0c.04-.15.06-.31.06-.48,0-1.3-1.24-2.35-2.77-2.35-.85,0-1.6.33-2.11.84-.64-1.06-1.93-1.78-3.43-1.78-2.14,0-3.88,1.47-3.88,3.28,0,.21.03.42.07.62-1.33.37-2.29,1.42-2.29,2.66,0,1.55,1.49,2.82,3.32,2.82h11.08c1.84,0,3.32-1.26,3.32-2.82s-1.49-2.82-3.32-2.82Z"/>
  <path class="cls-1" d="M0,54.62L19.2,12.37h19.44l19.2,42.24h-19.51l-3.56-7.87h-11.69l-3.56,7.87H0ZM25.09,35.92h7.59l-3.79-8.07-3.79,8.07Z"/>
  <path class="cls-1" d="M89.26,65.9c-5.01,0-8.65-1.03-10.92-3.08-2.27-2.06-3.51-4.74-3.72-8.07-5.94-.87-10.53-2.97-13.78-6.3-3.25-3.37-4.88-8.35-4.88-14.96,0-5.34,1.06-9.58,3.17-12.73,2.12-3.19,5.16-5.49,9.14-6.89,3.98-1.44,8.78-2.16,14.4-2.16s10.43.72,14.4,2.16c3.98,1.4,7.02,3.7,9.14,6.89,2.12,3.15,3.17,7.39,3.17,12.73,0,6.78-1.7,11.85-5.11,15.22-3.41,3.37-8.26,5.42-14.56,6.17.36,1.31,1.78,1.97,4.26,1.97,1.96,0,3.82-.26,5.58-.79v8.79c-1.03.26-2.48.5-4.34.72-1.86.22-3.85.33-5.96.33ZM82.68,41.83c2.74,0,4.67-.61,5.81-1.84,1.19-1.27,1.78-3.43,1.78-6.49s-.59-5.2-1.78-6.43c-1.14-1.27-3.07-1.9-5.81-1.9s-4.7.63-5.89,1.9c-1.14,1.22-1.7,3.37-1.7,6.43s.57,5.23,1.7,6.49c1.19,1.22,3.15,1.84,5.89,1.84Z"/>
  <path class="cls-1" d="M127.04,54.62l-19.2-42.24h19.51l9.37,23.48,9.45-23.48h19.51l-19.2,42.24h-19.44Z"/>
  <path class="cls-1" d="M169.58,54.62V20.77h14.63c2.27,0,4.11,1.56,4.11,3.48v30.37h-18.74Z"/>
  <path class="cls-1" d="M192.15,54.62l19.2-42.24h19.44l19.2,42.24h-19.51l-3.56-7.87h-11.69l-3.56,7.87h-19.51ZM217.24,35.92h7.59l-3.79-8.07-3.79,8.07Z"/>
</svg>